<?xml version="1.0" encoding="utf-8"?>
<!-- Generator: Adobe Illustrator 24.3.0, SVG Export Plug-In . SVG Version: 6.00 Build 0)  -->
<svg version="1.1" id="Слой_1" xmlns="http://www.w3.org/2000/svg" xmlns:xlink="http://www.w3.org/1999/xlink" x="0px" y="0px"
	 viewBox="0 0 64 95" style="enable-background:new 0 0 64 95;" xml:space="preserve">
<style type="text/css">
	.st0{fill:#F24C21;}
</style>
<g>
	<polygon class="st0" points="29,65 31,66 33.51,65.5 42,54 44,45 44.15,55.5 42,61 46,58 51,44 44,37 50,38 45,26 54,40 52,54 
		56,52 59,43 54,32 62,41 59,54 43,67 49,66 51,68 48,72 42,72 41,75 38,77 40,77 38,80 37,81 36,86 34,84 34,74 38,72 34,71 
		32,69.19 31,70 25,71 29,74 29,78 30,78 30,84 27.13,86 26,80 24,78 25,78 21,72 15,72 12,68 14,66 16,66 19,67 21,67 5,55 2,43 
		9,32 5,43 8,52 11,54 9,42 18,26 14,37 20,35 13,43 17,58 21,61 20,56 20,46 22,55 	"/>
</g>
<polygon class="st0" points="31,34 31,37.02 31,37 32,38 33,37 33,34 32,32.26 "/>
<g>
	<polygon class="st0" points="21,21 22.36,21 26,17 26,12 23.5,15.74 	"/>
</g>
<g>
	<polygon class="st0" points="33,11 34.43,9.19 35,7.4 35,6.17 33,2.9 32,2 30,6.5 30,9.2 	"/>
</g>
<g>
	<polygon class="st0" points="40,16 40,20.17 43,23 44.15,23 44.15,21.79 	"/>
</g>
<g>
	<polygon class="st0" points="30,86 30,87.66 31,88.68 31,89.19 28.74,89.19 28.74,90.55 30,92 33.6,92 35,90 35,89 33,89 33,88.34 
		34,87 34,86 	"/>
</g>
</svg>
